<?xml version="1.0" encoding="utf-8"?>
<!-- Generator: Adobe Illustrator 14.0.0, SVG Export Plug-In . SVG Version: 6.00 Build 43363)  -->
<!DOCTYPE svg PUBLIC "-//W3C//DTD SVG 1.1//EN" "http://www.w3.org/Graphics/SVG/1.1/DTD/svg11.dtd">
<svg version="1.1" id="Calque_1" xmlns="http://www.w3.org/2000/svg" xmlns:xlink="http://www.w3.org/1999/xlink" x="0px" y="0px"
	 width="230px" height="233px" viewBox="0 0 230 233" enable-background="new 0 0 230 233" xml:space="preserve">
<g id="Bretagne" transform="translate(0.000000,233.000000) scale(0.100000,-0.100000)">
	<path id="Côtes-d_x27_Armor_1_" d="M980,1940c-7.998-5-28.999-10-47.002-10c-16.997,0-35-5-37.998-11.001
		c-5-6.997-15-3.999-32.002,6.001c-20.996,13.999-28.999,15-48.999,5c-16.997-10-21.001-17.002-13.999-28.999
		c6.001-11.001,1.001-26.001-17.002-48.999C770,1833.999,755,1806.001,750,1790c-7.998-26.001-6.001-30,12.002-30
		c15,0,18.999-5,15-20c-3.003-12.002,0.996-23.999,10.996-28.999c15-8.999,14.004-12.002-6.997-35
		c-23.003-25-22.002-46.001,5-46.001c7.998,0,13.999-3.999,13.999-10c0-5-8.999-10-20-10c-15,0-20-7.002-20-23.999
		c0-13.999,5-28.003,10-31.001c12.998-7.998,12.998-102.002,0-110c-13.999-8.999,7.002-45,26.001-45
		c7.998,0,16.997-7.002,21.001-16.001c3.999-11.001,12.998-13.999,30-8.999c15.996,3.999,32.998-1.001,50-15
		c31.997-25,47.998-25,71.997-1.001c28.999,28.999,65,33.999,86.001,11.001c10-11.001,28.999-20,42.002-20
		c12.998,0,41.997-13.999,63.994-32.002c33.008-26.997,43.008-30,58.008-20.996c15,10,20,7.998,30-13.003
		c15-33.999,70.996-30,70.996,6.001c0,37.002,70.996,42.002,87.998,6.001c12.998-28.999,56.006-38.999,76.006-17.002
		c6.992,8.999,20.996,31.001,30,48.999c10,18.003,25,36.001,33.994,39.004c9.004,2.998,27.002,15,37.998,25
		C1600,1405,1610,1407.998,1615,1401.001c2.998-6.001,17.002-11.001,30.996-11.001c18.008,0,24.004,5,24.004,20
		c0,12.002,7.002,55,15.996,97.002c15,72.998,15,75.996-5,95c-11.992,10-20.996,30.996-20.996,45.996
		c0,24.004-4.004,27.002-35,29.004c-25.996,1.997-35-1.001-35-12.002c0-8.999-9.004-15-25-15c-17.998,0-25,5-25,18.999
		c0,25-17.998,37.002-32.998,22.002c-17.998-18.003-30-12.002-25,13.999c2.998,16.001,0.996,22.002-6.006,17.998
		c-5-3.999-25-5.996-41.992-5C1412.998,1720,1400,1715,1395.996,1705c-2.998-7.998-30-26.001-60.996-38.999
		c-32.998-15-55-31.001-55-40s-9.004-16.001-20-16.001c-15,0-20,7.002-20,27.998c0,20-7.998,32.002-30.996,46.001
		c-25,15-30,23.003-24.004,43.003c4.004,18.999,0,28.999-20,43.999c-16.001,13.999-25,30-25,50c0,21.997-5,28.999-20,28.999
		c-13.999,0-20,7.002-20,23.999c0,13.003-7.002,26.001-15,30c-7.998,3.003-15,12.002-15,21.001c0,21.001-37.002,18.999-48.999-2.002
		c-8.999-16.997-10-15.996-18.003,4.004C997.002,1943.999,991.001,1947.002,980,1940z"/>
	<path id="Finistère" d="M415,1856.001c-16.001-22.002-55-31.001-55-12.002C360,1855,351.001,1860,330,1860
		c-16.001,0-30-5-30-11.001c0-7.998-15-10-46.001-6.001c-40,4.004-46.997,2.002-51.001-13.999c-3.999-15-15-18.999-45.996-18.999
		c-24.004,0-48.003-7.002-59.004-17.002c-16.997-15-16.997-17.998-1.997-33.999c16.001-16.997,15-20-3.999-36.001
		c-12.002-10.996-22.002-35-25-60.996l-5-42.002l87.998,3.999c73.999,3.003,92.998,7.002,126.001,28.999
		c48.999,34.004,56.997,26.001,16.001-15.996c-36.001-37.002-41.001-53.003-13.003-37.002c30,16.001,43.003,12.002,36.001-8.999
		c-5-16.001,0-20,22.002-23.003c17.998-1.997,28.999-10,30.996-21.997c4.004-17.002,0-18.003-48.999-12.002
		c-30,3.999-76.997,18.003-106.001,31.001c-36.997,17.002-53.999,20-61.997,12.002c-16.001-16.001-13.999-24.004,8.999-30
		c15-4.004,20-14.004,20-37.002v-32.002L197.998,1500L215,1521.001l52.998-27.002C313.999,1470,320,1462.998,320,1436.001
		c0-17.002-3.999-36.001-7.998-42.002c-4.004-7.998-50-11.997-127.002-12.998C67.002,1380,13.999,1367.002,77.998,1353.999
		c18.003-3.999,35-11.001,38.003-15c2.998-5,16.001-8.999,28.999-8.999c15,0,33.999-13.999,57.002-42.002
		c28.999-36.997,32.998-50,32.998-100c0-62.002,5-67.998,72.002-67.998c38.999,0,46.997,10.996,27.998,35.996
		c-7.998,10.005-15,22.002-15,26.006c0,7.998,76.001-17.002,122.002-40c2.998-2.002,10,10,15.996,25
		c9.004,25.996,10,25.996,17.002,7.998c27.998-82.002,37.002-92.998,73.999-97.002c20-2.998,38.999-0.996,42.002,4.004
		c2.998,5,13.999-1.006,23.999-12.002c27.002-30,82.998-27.002,95,5c5,14.004,17.002,25,27.002,25s25,5.996,33.999,12.998
		c20,15,37.998,84.004,18.999,72.002c-6.001-3.999-18.999,0-27.998,7.998c-9.004,8.003-36.001,20-59.004,26.001
		c-38.999,11.001-42.998,15-56.997,65c-8.999,30-16.001,61.001-16.001,68.999c0,17.002,46.001,50,60,42.002
		c3.999-2.998,20,0,35,7.002c17.998,7.998,25,16.997,22.002,30c-3.003,10-1.001,20.996,3.999,23.999
		c11.997,6.997,11.997,91.001-1.001,98.999c-13.999,7.998-10,112.002,5,125c17.002,13.999,7.002,57.002-15,62.998
		c-17.002,4.004-17.998,9.004-8.999,42.002c13.999,48.999-1.001,65-57.002,65c-40,0-43.999-2.002-43.999-25
		c0-27.998-12.998-31.001-52.998-12.002C561.001,1820,550,1832.998,550,1845c0,17.998-7.998,20-62.998,22.002
		C442.998,1868.999,422.002,1866.001,415,1856.001z"/>
	<path id="Île-Et-Vilaine" d="M1682.998,1708.999c-15.996-16.001-3.994-80,19.004-102.998c15.996-13.999,17.998-26.001,12.998-50
		c-4.004-17.002-12.998-60-19.004-96.001c-15.996-83.999-20.996-92.002-60-88.999c-30.996,1.997-95.996-17.002-95.996-28.999
		c0-4.004-10-23.003-22.002-42.002s-22.998-50-23.994-68.999c-2.002-18.003-10-41.001-19.004-50
		c-20.996-23.999-19.004-31.001,10.996-31.001c45,0,105-75.996,74.004-95c-17.998-10.996-10.996-35,10-35
		c12.998,0,20-7.002,20-17.998c0-10-9.004-27.998-20-40s-20-27.002-20-35c0-7.002-5-17.998-10.996-24.004
		c-8.008-7.998-8.008-17.002,0-32.002c10-16.992,15.996-18.994,30.996-10.996c10,5,64.004,10,119.004,10
		c77.998,0,100.996,2.998,100.996,12.998c0,21.006,32.998,46.006,69.004,52.998c17.998,4.004,35,13.008,37.998,20
		c7.998,22.002,42.002,16.006,65.996-10c31.006-32.998,65-41.992,72.998-18.994c20,58.994,69.004,152.998,82.002,157.998
		c7.998,2.998,22.998,2.998,32.998,0c16.006-5.996,19.004-0.996,19.004,32.998c0,21.006-2.002,41.006-5,44.004s-7.998,43.999-10,90
		c-4.004,75.996-2.002,87.998,15,102.998c20,17.998,27.002,55,12.998,68.999c-3.994,3.999-5.996,27.002-3.994,51.001
		c1.992,40,0,45-18.008,45c-11.992,0-30,5-40.996,12.002c-15,10-22.002,8.999-37.002-3.003c-10-8.999-25.996-18.999-35-21.997
		c-10-4.004-17.998-11.001-17.998-17.002c0-21.001-32.998-8.999-65,22.998c-22.002,22.002-35,47.002-40,75
		c-5.996,39.004-9.004,42.002-39.004,42.002c-100,0-185.996,32.998-157.998,61.001c6.006,6.997,12.002,16.997,12.002,21.001
		C1740,1723.999,1695.996,1722.002,1682.998,1708.999z"/>
	<path id="Morbihan" d="M702.998,1382.998c-48.999-5.996-56.997-21.997-41.997-86.997c12.998-53.003,15-55,51.001-61.001
		c20-3.999,41.997-12.998,47.998-20c6.001-7.998,17.002-12.002,23.999-8.999c7.002,2.998,18.003-1.001,25-8.999
		c13.999-18.003,0-92.998-17.998-89.004c-6.001,1.006-13.999-5-17.002-12.998C770,1087.002,760,1080,750,1080
		c-25,0-33.999-35-18.999-72.002c11.001-27.002,16.001-30,46.997-25c27.002,5,33.003,2.998,28.003-7.998c-3.003-7.998-1.001-15,5-15
		C823.999,960,900,877.998,900,864.004c0-7.002,11.001-14.004,25-16.006c17.002-3.994,28.999,1.006,38.999,16.006
		c12.002,15.996,15,17.998,15,5C980,860,990,845,1001.001,834.004L1022.998,815l-5,32.998c-5.996,41.006,5,49.004,22.002,16.006
		c12.998-24.004,37.998-28.008,32.002-5c-4.004,17.998,50,0.996,70-23.008c20.996-25.996,22.002-30,3.999-45
		c-11.001-8.994-23.003-7.998-52.002,4.004c-46.997,19.004-51.997,14.004-21.001-19.004c24.004-25,29.004-26.992,117.002-25
		c85.996,1.006,127.002-8.994,100.996-25c-20.996-12.998-10.996-25.996,10-13.994c17.002,10,23.008,10,26.006,0.996
		c7.002-20,38.994-15.996,112.998,12.998l67.998,27.002l10,50c7.002,35,7.002,57.998-0.996,75c-9.004,17.998-7.998,25,2.998,32.002
		c12.002,7.002,12.002,12.002,2.998,20.996c-10,10-5.996,16.006,17.002,31.006c32.002,18.994,40,37.998,15.996,37.998
		c-20,0-30,37.998-15.996,55c25.996,30.996-4.004,65-72.002,79.004c-30.996,6.992-35,20.996-13.994,44.995
		c7.998,8.999,17.998,28.003,20.996,43.999c7.002,26.001,5,27.002-29.004,27.002c-28.994,0-37.998,5-50.996,28.999
		c-10.996,22.002-20,28.003-35,23.999c-10.996-2.998-20-12.998-20-22.998s-12.998-22.998-29.004-30
		c-30-12.002-70.996-6.001-70.996,11.001c0,5-12.998,8.999-27.998,8.999c-16.006,0-42.002,12.002-62.002,30
		c-18.999,16.001-47.002,28.999-61.001,30c-13.999,0-33.999,8.999-43.999,20c-21.001,22.998-42.998,26.001-51.001,6.001
		c-2.998-8.003-18.999-20-33.999-26.001c-25-10-33.999-8.999-62.998,7.002c-22.002,12.998-44.004,17.998-65,15
		c-24.004-3.003-32.002,0-32.002,10.996c0,8.003-7.002,18.003-16.001,21.001C767.998,1390,760,1390,702.998,1382.998z"/>
	<path id="Loire-Atlantique" d="M1910,935c0-10-10-15-34.004-15c-25.996,0-40.996-7.002-58.994-30c-25-29.004-27.998-30-111.006-30
		c-55,0-100-5.996-125.996-15.996c-39.004-16.006-45-25-52.002-83.008c-2.002-18.994-15.996-27.998-67.998-47.998
		c-77.998-30-125-38.994-134.004-23.994c-3.994,5-12.998,7.998-20.996,5c-7.998-4.004-12.998-10-10-14.004
		c2.998-5-7.998-17.998-25-30c-25-17.998-27.998-24.004-19.004-42.002c8.008-15,7.002-23.994-5.996-37.002
		c-15-16.992-14.004-18.994,15-30.996c22.998-10,32.998-10,44.004-0.996c11.992,10,16.992,7.998,25-7.002
		c15.996-31.006,58.994-37.002,85-12.998C1435.996,540,1490,547.998,1490,532.002c0-5-10.996-14.004-25-20
		c-20.996-10-24.004-17.002-19.004-37.002c7.002-27.998-17.998-65-42.998-65c-7.002,0-12.998-4.004-12.998-10c0-5,15-10,32.998-10
		c27.002,0,42.998-10.996,95-64.004C1552.002,290,1580,257.002,1580,252.002c0-9.004,30.996-24.004,77.002-37.002
		c10.996-2.998,23.994-15.996,27.002-29.004c3.994-17.998,16.992-25.996,50.996-35c49.004-11.992,72.002-6.992,57.002,12.002
		c-5,7.002-12.002,29.004-16.006,50c-7.998,45,5,67.002,39.004,67.002c27.002,0,37.998-20.996,29.004-55.996
		c-5-20-2.002-24.004,15-24.004c23.994,0,45,39.004,30,54.004c-15,16.992-10,22.998,13.994,18.994
		c14.004-2.998,29.004,2.002,36.006,11.006c17.998,20.996,33.994,20,55.996-4.004s37.998-25.996,32.998-2.998
		c-2.002,8.994-13.994,20-27.998,22.998c-30,7.998-30,42.998,0,67.998c20.996,19.004,17.998,72.002-5.996,72.002
		c-18.008,0-44.004,40-44.004,67.002c0,27.998,55,45,139.004,42.998c81.992-2.002,80.996-2.998,80.996,27.998
		c0,37.998-37.002,72.002-77.998,72.002c-29.004,0-32.002,2.998-32.002,32.002c0,17.002,7.002,38.994,15,47.998
		c12.998,14.004,12.002,20.996-5.996,57.002c-11.006,22.998-27.002,47.002-35,53.994c-8.008,6.006-14.004,22.002-14.004,35
		c0,15-5.996,24.004-15,24.004s-27.002,10.996-40.996,25C1935.996,952.998,1910,957.998,1910,935z"/>
</g>
</svg>
